# xmcd CD database file
#
# Track frame offsets:
#	150
#	17298
#	27751
#	39256
#	49975
#	58778
#	67347
#	77390
#	88140
#	100630
#	112907
#	125290
#	132969
#	144853
#	156448
#	172193
#	183292
#	196244
#	208609
#	220799
#	234682
#	245430
#	260234
#	273459
#	285028
#	293540
#	305002
#
# Disc length: 4241 seconds
#
# Revision: 0
# Processed by: cddbd v1.5.2PL0 Copyright (c) Steve Scherf et al.
# Submitted via: CDex 1.70beta2
#
DISCID=7e108f1b
DTITLE=Nat King Cole Trio - Radio Sessions From The Early Years- 1938 - 1939 - Disc 3
DYEAR=1900
DGENRE=Jazz
TTITLE0=Close To You
TTITLE1=Rhythm Sam
TTITLE2=On The Sunny Side Of The Street
TTITLE3=Little Joe From Chicago
TTITLE4=(Back Home Again In) Indiana
TTITLE5=Don't Take Your Love From Me
TTITLE6=No Love, No Nothin'
TTITLE7=Shoo Shoo Baby
TTITLE8=My Heart Tells Me
TTITLE9=Harlem Sandman
TTITLE10=Speak Low
TTITLE11=Them There Eyes
TTITLE12=Mexico Joe
TTITLE13=Lester Leaps In
TTITLE14=Just Another Blues
TTITLE15=Wild Goose Chase
TTITLE16=Besame Mucho
TTITLE17=Please Consider Me
TTITLE18=That'll Just About Knock Me Out
TTITLE19=You Must Be Blind
TTITLE20=Too Marvelous For Words
TTITLE21=I Realize Now
TTITLE22=I May Be Wrong (But I Think You're Wonderful)
TTITLE23=These Foolish Things
TTITLE24=Rosetta
TTITLE25=The Man I Love
TTITLE26=I'm In The Mood For Love
EXTD=
EXTT0=
EXTT1=
EXTT2=
EXTT3=
EXTT4=
EXTT5=
EXTT6=
EXTT7=
EXTT8=
EXTT9=
EXTT10=
EXTT11=
EXTT12=
EXTT13=
EXTT14=
EXTT15=
EXTT16=
EXTT17=
EXTT18=
EXTT19=
EXTT20=
EXTT21=
EXTT22=
EXTT23=
EXTT24=
EXTT25=
EXTT26=
PLAYORDER=
